<svg xmlns="http://www.w3.org/2000/svg" version="1.1" xmlns:xlink="http://www.w3.org/1999/xlink" xmlns:svgjs="http://svgjs.dev/svgjs" width="1000" height="999" viewBox="0 0 1000 999"><g transform="matrix(1,0,0,1,-0.215743440233382,-0.21552769679306039)"><svg viewBox="0 0 343 343" data-background-color="#ffffff" preserveAspectRatio="xMidYMid meet" height="999" width="1000" xmlns="http://www.w3.org/2000/svg" xmlns:xlink="http://www.w3.org/1999/xlink"><g id="tight-bounds" transform="matrix(1,0,0,1,0.0740000000000407,0.07400000000001228)"><svg viewBox="0 0 342.85155851775386 342.85155851775386" height="342.85155851775386" width="342.85155851775386"><g><svg></svg></g><g><svg viewBox="0 0 342.85155851775386 342.85155851775386" height="342.85155851775386" width="342.85155851775386"><g><path d="M0 171.426c0-94.676 76.75-171.426 171.426-171.426 94.676 0 171.426 76.75 171.426 171.426 0 94.676-76.75 171.426-171.426 171.426-94.676 0-171.426-76.75-171.426-171.426zM171.426 338.686c92.375 0 167.26-74.885 167.26-167.26 0-92.375-74.885-167.26-167.26-167.26-92.375 0-167.26 74.885-167.26 167.26 0 92.375 74.885 167.26 167.26 167.26z" data-fill-palette-color="tertiary" fill="#7a26c1" stroke="transparent"></path><ellipse rx="164.56874808852186" ry="164.56874808852186" cx="171.42577925887693" cy="171.42577925887693" fill="#7a26c1" stroke="transparent" stroke-width="0" fill-opacity="1" data-fill-palette-color="tertiary"></ellipse></g><g transform="matrix(1,0,0,1,64.84655864529837,110.95838012786062)"><svg viewBox="0 0 213.1584412271571 120.93479826203261" height="120.93479826203261" width="213.1584412271571"><g><svg viewBox="0 0 213.1584412271571 120.93479826203261" height="120.93479826203261" width="213.1584412271571"><g><svg viewBox="0 0 213.1584412271571 120.93479826203261" height="120.93479826203261" width="213.1584412271571"><g transform="matrix(1,0,0,1,0,74.7425569894215)"><svg viewBox="0 0 213.1584412271571 46.192241272611106" height="46.192241272611106" width="213.1584412271571"><g id="textblocktransform"><svg viewBox="0 0 213.1584412271571 46.192241272611106" height="46.192241272611106" width="213.1584412271571" id="textblock"><g><svg viewBox="0 0 213.1584412271571 46.192241272611106" height="46.192241272611106" width="213.1584412271571"><g transform="matrix(1,0,0,1,0,0)"><svg width="213.1584412271571" viewBox="1.2000000476837158 -29.600000381469727 224.47000122070312 48.650001525878906" height="46.192241272611106" data-palette-color="#ffffff"><path d="M28.2-25.6Q28.3-25.5 28.65-25.48 29-25.45 29.28-25.2 29.55-24.95 30.13-23.55 30.7-22.15 30.7-21.23 30.7-20.3 30.48-19.28 30.25-18.25 29.75-18.25L29.75-18.25Q28.9-18.25 28.35-20.23 27.8-22.2 27.55-22.7L27.55-22.7Q26.15-25.65 24.55-27L24.55-27Q23.1-28.35 21.6-28.35L21.6-28.35Q20.95-28.35 20.3-28.1L20.3-28.1Q17.1-26.75 17.1-21.8L17.1-21.8Q17.1-20.2 17.7-18.03 18.3-15.85 19.55-14.2L19.55-14.2Q19.8-13.9 22.2-13.7L22.2-13.7Q23.45-13.55 23.65-12.83 23.85-12.1 23.05-11.7L23.05-11.7Q22.6-11.15 19.6-12L19.6-12Q18.8-12.2 18.55-12.25L18.55-12.25Q15.85-12.2 12.45-11.05 9.05-9.9 6.2-7.53 3.35-5.15 3.35-2.3L3.35-2.3Q3.35-0.15 5.1 1.18 6.85 2.5 10.73 2.5 14.6 2.5 19.38 1.3 24.15 0.1 26.88-1.3 29.6-2.7 32.25-5.25 34.9-7.8 34.9-9.65L34.9-9.65Q34.9-9.95 34.88-10.15 34.85-10.35 34.95-10.4L34.95-10.4Q35.25-10.55 35.45-10.35L35.45-10.35Q36.1-9.1 36.1-8.4L36.1-8.4Q36.1-6.35 34.75-4.7L34.75-4.7Q32.4-1.85 29.45-0.2 26.5 1.45 21.38 2.6 16.25 3.75 12.85 3.75 9.45 3.75 7.08 3.15 4.7 2.55 2.95 0.75 1.2-1.05 1.2-3.68 1.2-6.3 2.48-8.13 3.75-9.95 5.53-10.95 7.3-11.95 9.8-12.6L9.8-12.6Q13.5-13.6 18.05-13.85L18.05-13.85Q14.8-17.55 14.2-22.4L14.2-22.4Q14.15-22.95 14.15-23.45L14.15-23.45Q14.15-25.25 15.03-26.78 15.9-28.3 17.95-28.95 20-29.6 21-29.6 22-29.6 22.48-29.48 22.95-29.35 23.3-29.23 23.65-29.1 24-28.88 24.35-28.65 24.6-28.5 24.85-28.35 25.2-28.03 25.55-27.7 25.7-27.58 25.85-27.45 26.25-27.08 26.65-26.7 26.75-26.65L26.75-26.65Q27.5-25.75 28.2-25.6L28.2-25.6ZM38.35 0.5L38.35 0.5Q37.7 1.25 38.07 1.7 38.45 2.15 38.92 2.15 39.4 2.15 39.9 2L39.9 2Q42.05 1.35 44.07-0.58 46.1-2.5 46.1-4.5L46.1-4.5Q46.1-5.6 43.65-6.9L43.65-6.9Q42.5-7.5 42.35-7.6L42.35-7.6Q41-8.5 40.65-9.4L40.65-9.4Q39.95-8.2 38.4-5.95L38.4-5.95Q38.05-5.55 37.75-5.78 37.45-6 37.7-6.4L37.7-6.4Q39.75-9.2 40.4-11.1L40.4-11.1Q40.75-13.85 44.4-16.05 48.05-18.25 51.05-18.25L51.05-18.25Q52.95-18.25 53.72-17.57 54.5-16.9 54.5-16.25 54.5-15.6 54.12-14.75 53.75-13.9 52.6-13.15L52.6-13.15Q52.3-12.95 52.1-13.25L52.1-13.25Q52-13.55 52.52-14.08 53.05-14.6 53.2-15.5 53.35-16.4 52.4-16.6L52.4-16.6Q52.25-16.6 52.1-16.6L52.1-16.6Q50.15-16.6 47.22-15.15 44.3-13.7 42.65-11.4L42.65-11.4Q42-10.55 42-9.68 42-8.8 43.2-8.1L43.2-8.1Q43.7-7.8 44.9-7.15 46.1-6.5 46.6-6.2 47.1-5.9 47.8-5.25 48.5-4.6 48.55-4.05L48.55-4.05Q48.8-2.55 47.15-0.75L47.15-0.75Q44.8 1.85 40.15 2.9L40.15 2.9Q39.1 3.15 38.02 3.15 36.95 3.15 36.55 2.35L36.55 2.35Q36.4 2.15 36.4 1.73 36.4 1.3 37.2 0.35L37.2 0.35Q37.95-0.4 39.6-1.1L39.6-1.1Q39.75-1.15 39.85-1.05 39.95-0.95 39.9-0.8 39.85-0.65 39.37-0.45 38.9-0.25 38.35 0.5ZM60-13.95L60.65-14Q64.5-14.35 65.32-14.35 66.15-14.35 66.15-14.1L66.15-14.1Q66.15-13.8 64.97-13.48 63.8-13.15 59.25-12.65L59.25-12.65Q59-12.2 58.65-11.6L58.65-11.6Q57.9-10.4 57.85-10.15L57.85-10.15Q55-4.45 54.85-2.9L54.85-2.9Q54.8-2.45 54.8-1.75 54.8-1.05 55.2-0.6L55.2-0.6Q55.9 0.2 57.2-0.5 58.5-1.2 60.82-3.3 63.15-5.4 64.6-7.4L64.6-7.4Q64.8-7.65 65.1-7.5L65.1-7.5Q65.85-7.15 62.5-3.55L62.5-3.55Q59.3-0.1 57.15 0.7L57.15 0.7Q55.9 1.15 55.05 1.15L55.05 1.15Q53.05 1.15 52.4-0.75L52.4-0.75Q52.3-1.1 52.3-1.6L52.3-1.6Q52.3-3.35 53.9-6.9L53.9-6.9Q53.65-6.35 51.95-4.4L51.95-4.4Q51.5-3.9 51.25-4.4L51.25-4.4Q51.2-4.5 51.2-4.67 51.2-4.85 51.4-5.1L51.4-5.1Q53.85-8.15 55.25-10.25L55.25-10.25Q55.25-10.3 56.35-12.35L56.35-12.35Q55.85-12.25 55.32-12.25 54.8-12.25 54.55-12.58 54.3-12.9 54.5-13.35L54.5-13.35Q54.85-14.15 57.15-14.25L57.15-14.25Q57.2-14.35 57.35-14.35L57.35-14.35 59.85-19Q60.05-19.4 60.3-19.83 60.55-20.25 60.67-20.48 60.8-20.7 60.95-20.95 61.1-21.2 61.2-21.3 61.3-21.4 61.4-21.5L61.4-21.5Q61.6-21.8 62.57-21.8 63.55-21.8 63.9-21.25L63.9-21.25Q64.05-21.05 64.05-20.58 64.05-20.1 63.7-19.53 63.35-18.95 62.95-18.7 62.55-18.45 62.4-18.15L62.4-18.15 60-13.95ZM81.09-29.25L81.09-29.25Q81.99-29.6 82.64-29.6L82.64-29.6Q84.84-29.6 85.54-28.4L85.54-28.4Q85.94-27.8 85.94-27.35L85.94-27.35Q85.94-23.95 80.24-18.8L80.24-18.8Q75.19-14.35 70.94-11.15L70.94-11.15Q69.54-8 68.04-3.4L68.04-3.4Q69.84-5.6 72.59-8.5L72.59-8.5Q78.14-14.25 80.34-14.25L80.34-14.25Q81.44-14.25 81.49-13.15L81.49-13.15Q81.59-12 81.02-10.95 80.44-9.9 79.94-9L79.94-9Q77.59-5.1 77.59-2.05L77.59-2.05Q77.59-1.05 77.99-0.6L77.99-0.6Q78.69 0.2 79.99-0.5 81.29-1.2 83.62-3.3 85.94-5.4 87.39-7.4L87.39-7.4Q87.64-7.65 87.87-7.53 88.09-7.4 88.09-7.28 88.09-7.15 87.99-7L87.99-7Q87.24-5.65 85.29-3.58 83.34-1.5 82.14-0.6L82.14-0.6Q79.84 1.15 77.74 1.15L77.74 1.15Q75.84 1.15 75.19-0.75L75.19-0.75Q75.04-1.2 75.04-1.83 75.04-2.45 75.14-3.15L75.14-3.15Q75.39-5.25 77.79-9.7L77.79-9.7Q78.29-10.6 78.29-10.98 78.29-11.35 77.89-11.35L77.89-11.35Q77.09-11.35 74.79-9.35L74.79-9.35Q73.24-7.9 70.22-3.88 67.19 0.15 66.79 0.4L66.79 0.4Q64.99 1.3 64.57 1.3 64.14 1.3 64.09 1.18 64.04 1.05 64.14 0.85 64.24 0.65 64.94-1.35L64.94-1.35Q67.29-8 68.14-10.15L68.14-10.15Q66.49-8.05 64.04-5.4L64.04-5.4Q63.64-5 63.64-5.58 63.64-6.15 64.09-6.75 64.54-7.35 65.97-9.08 67.39-10.8 67.99-11.65L67.99-11.65Q67.54-11.9 67.52-12.35 67.49-12.8 67.82-12.98 68.14-13.15 68.89-12.85L68.89-12.85Q69.39-13.55 69.79-14.4L69.79-14.4Q75.74-27.2 81.09-29.25ZM83.89-25.5L83.89-25.5Q84.54-26.7 84.54-27.53 84.54-28.35 83.82-28.35 83.09-28.35 81.89-27.45L81.89-27.45Q76.39-23.25 71.94-13.4L71.94-13.4Q75.19-15.5 78.74-19 82.29-22.5 83.89-25.5ZM98.29-14.55L98.29-14.55Q100.99-14.55 100.99-11.95L100.99-11.95Q100.99-10.6 100.24-9.75L100.24-9.75Q98.99-7.9 96.19-6.53 93.39-5.15 91.44-5L91.44-5Q90.74-4.95 90.69-5.4L90.69-5.4Q90.64-5.6 90.82-5.65 90.99-5.7 91.09-5.7L91.09-5.7Q92.24-5.8 94.04-6.8L94.04-6.8Q97.39-8.6 98.94-10.5L98.94-10.5Q99.59-11.4 99.59-12.23 99.59-13.05 98.79-13.05L98.79-13.05Q98.14-13.05 97.04-12.5L97.04-12.5Q94.69-11.4 92.09-8.68 89.49-5.95 88.69-3.35L88.69-3.35Q88.44-2.55 88.44-1.78 88.44-1 89.09-0.3 89.74 0.4 91.09 0.4L91.09 0.4Q92.59 0.4 94.54-0.4L94.54-0.4Q100.19-2.7 103.24-7.35L103.24-7.35Q103.54-7.75 103.79-7.5L103.79-7.5Q103.99-7.4 103.99-7.25 103.99-7.1 103.84-6.9L103.84-6.9Q102.34-4.4 100.04-2.45L100.04-2.45Q95.59 1.35 91.39 1.35L91.39 1.35Q87.79 1.35 86.34-0.8L86.34-0.8Q85.79-1.65 85.79-2.85 85.79-4.05 86.44-5.7L86.44-5.7Q87.69-8.55 91.79-11.55 95.89-14.55 98.29-14.55ZM109.29 1.25L109.29 1.25Q106.74 1.25 106.74-1.83 106.74-4.9 111.14-9.4L111.14-9.4Q111.49-9.75 111.64-9.95L111.64-9.95 111.99-10.45Q112.69-11.4 112.64-11.65L112.64-11.65 112.49-12.1Q112.29-12.7 110.84-12.98 109.39-13.25 108.49-13.25L108.49-13.25Q103.99-6.9 103.29-6 102.59-5.1 102.34-5.25 102.09-5.4 102.09-5.6 102.09-5.8 102.39-6.2L102.39-6.2Q105.09-9.5 107.04-13.25L107.04-13.25Q106.44-13.35 106.14-13.68 105.84-14 106.09-14.78 106.34-15.55 107.61-16.85 108.89-18.15 109.84-18.6 110.79-19.05 111.04-19.15 111.29-19.25 111.59-19.25L111.59-19.25Q112.19-19.25 111.19-17.45L111.19-17.45 109.24-14.35Q111.49-14.2 113.09-14.2L113.09-14.2 114.84-14.25Q115.69-14.25 116.09-14.03 116.49-13.8 116.29-13.25L116.29-13.25Q115.94-12.3 114.54-10.7L114.54-10.7Q111.54-7.2 110.04-3.25L110.04-3.25Q109.69-2.3 109.69-1.6L109.69-1.6Q109.69-0.15 110.74-0.15L110.74-0.15Q111.09-0.15 112.06-0.7 113.04-1.25 115.34-3.33 117.64-5.4 119.04-7.4L119.04-7.4Q119.24-7.65 119.51-7.53 119.79-7.4 119.79-7.28 119.79-7.15 119.69-7L119.69-7Q118.94-5.65 116.99-3.55 115.04-1.45 113.19-0.15L113.19-0.15Q111.39 1.25 109.29 1.25ZM137.18-20.4L137.18-20.4Q137.18-19.6 137.61-19 138.03-18.4 138.38-18.15L138.38-18.15Q139.08-17.7 140.18-17.15L140.18-17.15Q140.78-16.7 140.43-16.6L140.43-16.6Q140.28-16.6 140.08-16.65L140.08-16.65Q138.88-16.9 137.53-18.1 136.18-19.3 136.13-20.85L136.13-20.85Q135.98-21.4 135.98-21.8L135.98-21.8Q135.98-23.95 137.78-25.55L137.78-25.55Q141.13-28.4 148.43-28.4L148.43-28.4Q148.43-28.6 148.58-28.9L148.58-28.9Q148.68-29.5 150.13-29.5L150.13-29.5Q151.38-29.5 151.33-28.9L151.33-28.9Q151.13-28.5 151.08-28.25L151.08-28.25Q154.28-28.05 156.43-26.95L156.43-26.95Q157.13-26.6 157.46-26.1 157.78-25.6 157.78-25.4L157.78-25.4Q157.78-24.95 155.96-25.58 154.13-26.2 150.38-26.2L150.38-26.2Q150.13-25.15 148.66-20.9 147.18-16.65 146.78-15.63 146.38-14.6 145.68-12.78 144.98-10.95 144.43-9.8 143.88-8.65 143.18-7.2L143.18-7.2Q141.98-4.75 140.33-2.6L140.33-2.6Q139.08-1.15 138.43-0.65L138.43-0.65Q139.28-0.65 141.73-0.65 144.18-0.65 146.03-0.78 147.88-0.9 148.06-0.75 148.23-0.6 148.08-0.4L148.08-0.4Q147.78 0.1 147.28 0.38 146.78 0.65 139.93 0.85 133.08 1.05 131.38 1.05 129.68 1.05 128.93 1.05L128.93 1.05Q127.78 1 127.78 0.15L127.78 0.15Q127.78-0.3 128.08-1.1L128.08-1.1Q128.43-1.9 129.46-2.13 130.48-2.35 131.28-1.7L131.28-1.7Q132.63-0.6 133.93-0.6 135.23-0.6 136.61-1.1 137.98-1.6 139.38-3.4L139.38-3.4Q143.43-8.8 147.88-26.15L147.88-26.15Q143.28-25.75 140.23-24.28 137.18-22.8 137.18-20.4ZM149.53 19.05L149.53 19.05Q149.13 19.05 148.53 18.9L148.53 18.9Q145.98 18.25 145.98 16.23 145.98 14.2 148.61 11.15 151.23 8.1 159.68 2.5L159.68 2.5Q164.38-7.1 165.63-10.95L165.63-10.95Q165.03-10.25 163.28-7.93 161.53-5.6 160.18-3.98 158.83-2.35 156.93-0.9 155.03 0.55 153.43 0.55 151.83 0.55 150.96-0.18 150.08-0.9 149.98-1.7 149.88-2.5 149.88-3.05L149.88-3.05Q149.88-4.9 150.88-6.75L150.88-6.75Q152.38-9.8 154.93-12L154.93-12Q155.88-12.9 156.61-12.9 157.33-12.9 157.93-12.45L157.93-12.45Q158.58-11.75 158.33-11.25L158.33-11.25Q156.43-10.15 153.98-7L153.98-7Q152.68-5.3 152.18-2.7L152.18-2.7Q152.13-2.35 152.13-1.83 152.13-1.3 152.56-0.98 152.98-0.65 153.43-0.65L153.43-0.65Q154.98-0.65 156.68-2.3 158.38-3.95 159.93-5.78 161.48-7.6 163.46-10.15 165.43-12.7 166.06-13.5 166.68-14.3 167.33-14.3L167.33-14.3Q168.13-14.3 168.98-13.85 169.83-13.4 169.71-13.15 169.58-12.9 167.16-7.48 164.73-2.05 163.63 0.3L163.63 0.3Q164.83-0.35 167.71-2.78 170.58-5.2 172.58-7.7L172.58-7.7Q173.08-8.3 173.23-7.8L173.23-7.8Q173.28-7.7 173.28-7.48 173.28-7.25 172.98-6.85L172.98-6.85Q171.43-4.8 168.03-1.7 164.63 1.4 162.63 2.5L162.63 2.5Q158.38 11.25 156.93 13.5L156.93 13.5Q153.18 19.05 149.53 19.05ZM158.73 4.4L158.73 4.4Q152.73 8.9 150.16 11.5 147.58 14.1 147.58 15.98 147.58 17.85 148.88 17.85L148.88 17.85Q149.88 17.85 151.18 16.82 152.48 15.8 153.68 14.1 154.88 12.4 155.51 11.18 156.13 9.95 157.23 7.58 158.33 5.2 158.73 4.4ZM183.23-14.55L183.23-14.55Q185.93-14.55 185.93-11.95L185.93-11.95Q185.93-10.6 185.18-9.75L185.18-9.75Q183.93-7.9 181.13-6.53 178.33-5.15 176.38-5L176.38-5Q175.68-4.95 175.63-5.4L175.63-5.4Q175.58-5.6 175.75-5.65 175.93-5.7 176.03-5.7L176.03-5.7Q177.18-5.8 178.98-6.8L178.98-6.8Q182.33-8.6 183.88-10.5L183.88-10.5Q184.53-11.4 184.53-12.23 184.53-13.05 183.73-13.05L183.73-13.05Q183.08-13.05 181.98-12.5L181.98-12.5Q179.63-11.4 177.03-8.68 174.43-5.95 173.63-3.35L173.63-3.35Q173.38-2.55 173.38-1.78 173.38-1 174.03-0.3 174.68 0.4 176.03 0.4L176.03 0.4Q177.53 0.4 179.48-0.4L179.48-0.4Q185.13-2.7 188.18-7.35L188.18-7.35Q188.48-7.75 188.73-7.5L188.73-7.5Q188.93-7.4 188.93-7.25 188.93-7.1 188.78-6.9L188.78-6.9Q187.28-4.4 184.98-2.45L184.98-2.45Q180.53 1.35 176.33 1.35L176.33 1.35Q172.73 1.35 171.28-0.8L171.28-0.8Q170.73-1.65 170.73-2.85 170.73-4.05 171.38-5.7L171.38-5.7Q172.63-8.55 176.73-11.55 180.83-14.55 183.23-14.55ZM186.28 19.05L186.28 19.05Q185.88 19.05 185.28 18.9L185.28 18.9Q182.73 18.25 182.73 16.23 182.73 14.2 185.35 11.15 187.98 8.1 196.43 2.5L196.43 2.5Q200.03-4.85 201.43-9.15L201.43-9.15Q198.63-5.75 197.43-4.45L197.43-4.45Q192.93 0.55 190.18 0.55L190.18 0.55Q189.38 0.55 188.45 0.08 187.53-0.4 186.88-1.28 186.23-2.15 186.23-3.15L186.23-3.15Q186.23-5.8 189.93-9.1L189.93-9.1Q192.13-11.1 194.53-12.5 196.93-13.9 198.33-14.25 199.73-14.6 201.03-14.6 202.33-14.6 203.33-13.9 204.33-13.2 204.33-12.5L204.33-12.5Q204.33-12.1 203.93-12.25L203.93-12.25Q203.38-13.2 201.5-13.2 199.63-13.2 197.25-11.98 194.88-10.75 192.98-9.08 191.08-7.4 189.75-5.28 188.43-3.15 188.43-2.15L188.43-2.15Q188.43-0.4 189.43-0.4L189.43-0.4Q190.83-0.4 193.73-2.7L193.73-2.7Q198.03-6.05 201.98-10.85L201.98-10.85Q202.63-11.8 204.68-10.8L204.68-10.8Q205.48-10.4 205.33-10.1L205.33-10.1Q204.68-8.65 202.95-5.08 201.23-1.5 200.38 0.3L200.38 0.3Q201.53-0.3 204.3-2.73 207.08-5.15 209.18-7.6L209.18-7.6Q210.28-8.9 210.28-8L210.28-8Q210.28-6.75 204.28-1.4L204.28-1.4Q200.83 1.7 199.38 2.5L199.38 2.5Q195.13 11.25 193.68 13.5L193.68 13.5Q189.93 19.05 186.28 19.05ZM195.48 4.4L195.48 4.4Q189.48 8.9 186.88 11.53 184.28 14.15 184.28 16.45L184.28 16.45Q184.28 17.15 184.73 17.45 185.18 17.75 185.68 17.75 186.18 17.75 187.13 17 188.08 16.25 188.75 15.53 189.43 14.8 189.93 14.18 190.43 13.55 191.05 12.58 191.68 11.6 192.03 11.05 192.38 10.5 193 9.33 193.63 8.15 193.85 7.73 194.08 7.3 194.7 6 195.33 4.7 195.48 4.4ZM219.97-14.55L219.97-14.55Q222.67-14.55 222.67-11.95L222.67-11.95Q222.67-10.6 221.92-9.75L221.92-9.75Q220.67-7.9 217.87-6.53 215.07-5.15 213.12-5L213.12-5Q212.42-4.95 212.37-5.4L212.37-5.4Q212.32-5.6 212.5-5.65 212.67-5.7 212.77-5.7L212.77-5.7Q213.92-5.8 215.72-6.8L215.72-6.8Q219.07-8.6 220.62-10.5L220.62-10.5Q221.27-11.4 221.27-12.23 221.27-13.05 220.47-13.05L220.47-13.05Q219.82-13.05 218.72-12.5L218.72-12.5Q216.37-11.4 213.77-8.68 211.17-5.95 210.37-3.35L210.37-3.35Q210.12-2.55 210.12-1.78 210.12-1 210.77-0.3 211.42 0.4 212.77 0.4L212.77 0.4Q214.27 0.4 216.22-0.4L216.22-0.4Q221.87-2.7 224.92-7.35L224.92-7.35Q225.22-7.75 225.47-7.5L225.47-7.5Q225.67-7.4 225.67-7.25 225.67-7.1 225.52-6.9L225.52-6.9Q224.02-4.4 221.72-2.45L221.72-2.45Q217.27 1.35 213.07 1.35L213.07 1.35Q209.47 1.35 208.02-0.8L208.02-0.8Q207.47-1.65 207.47-2.85 207.47-4.05 208.12-5.7L208.12-5.7Q209.37-8.55 213.47-11.55 217.57-14.55 219.97-14.55Z" opacity="1" transform="matrix(1,0,0,1,0,0)" fill="#ffffff" class="wordmark-text-0" data-fill-palette-color="quaternary" id="text-0"></path></svg></g></svg></g></svg></g></svg></g><g transform="matrix(1,0,0,1,78.98272463745288,0)"><svg viewBox="0 0 55.192991952251354 63.83767743874856" height="63.83767743874856" width="55.192991952251354"><g><svg xmlns="http://www.w3.org/2000/svg" xmlns:xlink="http://www.w3.org/1999/xlink" version="1.1" x="0" y="0" viewBox="9 1 83 96" enable-background="new 0 0 100 100" xml:space="preserve" height="63.83767743874856" width="55.192991952251354" class="icon-icon-0" data-fill-palette-color="quaternary" id="icon-0"><g fill="#ffffff" data-fill-palette-color="quaternary"><path fill="#ffffff" d="M71.3 10.01C57.831 10.01 50.55 1 50.55 1s-7.306 9.01-20.774 9.01C17.371 10.01 9 2.528 9 2.528v48.928C9.378 83.682 50.5 97 50.5 97S92 83.682 92 51.456V2.528C92 2.528 83.703 10.01 71.3 10.01z" data-fill-palette-color="quaternary"></path></g></svg></g></svg></g><g></g></svg></g></svg></g></svg></g></svg></g><defs></defs></svg><rect width="342.85155851775386" height="342.85155851775386" fill="none" stroke="none" visibility="hidden"></rect></g></svg></g></svg>